<svg width="24" height="22" viewBox="0 0 24 22" fill="none" xmlns="http://www.w3.org/2000/svg">
<path fill-rule="evenodd" clip-rule="evenodd" d="M0.75004 6.20188C0.75 6.29947 0.75 6.39883 0.75 6.5V15.5C0.75 18.3284 0.75 19.7426 1.62868 20.6213C2.50736 21.5 3.92157 21.5 6.75 21.5H17.25C20.0784 21.5 21.4926 21.5 22.3713 20.6213C23.25 19.7426 23.25 18.3284 23.25 15.5V6.5C23.25 6.39883 23.25 6.29947 23.25 6.20188L13.1094 12.9622C12.4376 13.4101 11.5624 13.4101 10.8906 12.9622L0.75004 6.20188ZM0.78832 4.00059C0.966619 4.00726 1.14536 4.06172 1.3047 4.16795L12 11.2981L22.6953 4.16795C22.8546 4.06172 23.0334 4.00726 23.2117 4.0006C23.1411 2.74235 22.9407 1.94807 22.3713 1.37868C21.4926 0.5 20.0784 0.5 17.25 0.5H6.75C3.92157 0.5 2.50736 0.5 1.62868 1.37868C1.05929 1.94807 0.858866 2.74234 0.78832 4.00059Z" fill="#D9D9D9"/>
</svg>
